<svg xmlns="http://www.w3.org/2000/svg" viewBox="0 0 640 420" role="img" aria-labelledby="title desc">
  <title id="title">Stand-Up India entrepreneur illustration</title>
  <desc id="desc">A woman entrepreneur beside a new enterprise and growth chart.</desc>
  <rect width="640" height="420" fill="#673391"/>
  <circle cx="116" cy="94" r="118" fill="#13A8D5" opacity=".24"/>
  <circle cx="548" cy="326" r="128" fill="#EC7116" opacity=".18"/>
  <rect x="284" y="148" width="252" height="180" rx="24" fill="#fff"/>
  <path d="M310 214h68v114h-68Z" fill="#5553AA"/>
  <path d="M404 188h90v34h-90Z" fill="#EEEef6"/>
  <path d="M404 248h90v80h-90Z" fill="#EEEef6"/>
  <path d="M268 148h286l-34-58H302Z" fill="#B22382"/>
  <circle cx="198" cy="164" r="42" fill="#fff"/>
  <path d="M122 340c20-84 56-126 108-126s88 42 108 126Z" fill="#fff"/>
  <path d="M154 282h148" stroke="#13A8D5" stroke-width="18" stroke-linecap="round"/>
  <path d="M438 128c34-38 70-42 112-12" fill="none" stroke="#2F7F15" stroke-width="16" stroke-linecap="round"/>
  <path d="M542 118h-38V80" fill="none" stroke="#2F7F15" stroke-width="16" stroke-linecap="round" stroke-linejoin="round"/>
  <path d="M104 74a42 42 0 1 0 0 84 42 42 0 0 0 0-84Zm0 22a20 20 0 1 1 0 40 20 20 0 0 1 0-40Z" fill="#13A8D5"/>
  <rect x="100" y="126" width="9" height="54" rx="4.5" fill="#13A8D5"/>
</svg>
