<svg xmlns="http://www.w3.org/2000/svg" viewBox="0 0 640 420" role="img" aria-labelledby="title desc">
  <title id="title">MUDRA small business illustration</title>
  <desc id="desc">A neighborhood shop, credit card and rupee growth symbols.</desc>
  <rect width="640" height="420" fill="#EEEef6"/>
  <circle cx="122" cy="88" r="92" fill="#13A8D5" opacity=".3"/>
  <circle cx="548" cy="326" r="128" fill="#B22382" opacity=".2"/>
  <path d="M112 158h338l42 72H70Z" fill="#673391"/>
  <path d="M96 230h370v138H96Z" fill="#fff"/>
  <path d="M128 258h92v110h-92Z" fill="#5553AA"/>
  <path d="M252 258h178v42H252Z" fill="#EEEef6"/>
  <path d="M252 322h178v46H252Z" fill="#EEEef6"/>
  <path d="M70 230h422" stroke="#EC7116" stroke-width="14"/>
  <rect x="360" y="88" width="176" height="104" rx="18" fill="#B22382" transform="rotate(9 448 140)"/>
  <rect x="386" y="122" width="70" height="12" rx="6" fill="#fff" opacity=".76" transform="rotate(9 421 128)"/>
  <rect x="386" y="150" width="112" height="12" rx="6" fill="#fff" opacity=".42" transform="rotate(9 442 156)"/>
  <circle cx="520" cy="104" r="22" fill="#fff" opacity=".22"/>
  <path d="M180 126c44-42 94-44 150-6" fill="none" stroke="#2F7F15" stroke-width="16" stroke-linecap="round"/>
  <path d="M320 124h-42v-42" fill="none" stroke="#2F7F15" stroke-width="16" stroke-linecap="round" stroke-linejoin="round"/>
</svg>
